<svg width="608" height="224" xmlns="http://www.w3.org/2000/svg" version="1.1" >
<rect width="100%" height="100%" fill="white"/>
<polygon stroke="red" points="16,16 592,16 592,208 16,208" fill="none" stroke-width="1" stroke-dasharray="8"/>
<circle cx="32" cy="176" r="2" fill="black" />
<circle cx="48" cy="176" r="2" fill="black" />
<circle cx="96" cy="192" r="2" fill="black" />
<circle cx="64" cy="176" r="2" fill="black" />
<circle cx="80" cy="176" r="2" fill="black" />
<circle cx="192" cy="176" r="2" fill="black" />
<circle cx="208" cy="176" r="2" fill="black" />
<circle cx="224" cy="176" r="2" fill="black" />
<circle cx="240" cy="176" r="2" fill="black" />
<circle cx="256" cy="176" r="2" fill="black" />
<circle cx="112" cy="208" r="2" fill="black" />
<circle cx="128" cy="208" r="2" fill="black" />
<circle cx="144" cy="208" r="2" fill="black" />
<circle cx="160" cy="192" r="2" fill="black" />
<circle cx="176" cy="176" r="2" fill="black" />
<circle cx="272" cy="176" r="2" fill="black" />
<circle cx="288" cy="176" r="2" fill="black" />
<circle cx="304" cy="176" r="2" fill="black" />
<circle cx="320" cy="176" r="2" fill="black" />
<circle cx="336" cy="176" r="2" fill="black" />
<circle cx="416" cy="192" r="2" fill="black" />
<circle cx="432" cy="208" r="2" fill="black" />
<circle cx="448" cy="208" r="2" fill="black" />
<circle cx="464" cy="208" r="2" fill="black" />
<circle cx="480" cy="192" r="2" fill="black" />
<circle cx="496" cy="176" r="2" fill="black" />
<circle cx="352" cy="176" r="2" fill="black" />
<circle cx="368" cy="176" r="2" fill="black" />
<circle cx="384" cy="176" r="2" fill="black" />
<circle cx="400" cy="176" r="2" fill="black" />
<circle cx="496" cy="80" r="2" fill="black" />
<circle cx="480" cy="64" r="2" fill="black" />
<circle cx="464" cy="48" r="2" fill="black" />
<circle cx="448" cy="48" r="2" fill="black" />
<circle cx="432" cy="32" r="2" fill="black" />
<circle cx="416" cy="32" r="2" fill="black" />
<circle cx="400" cy="16" r="2" fill="black" />
<circle cx="384" cy="16" r="2" fill="black" />
<circle cx="368" cy="16" r="2" fill="black" />
<circle cx="352" cy="16" r="2" fill="black" />
<circle cx="336" cy="16" r="2" fill="black" />
<circle cx="320" cy="16" r="2" fill="black" />
<circle cx="304" cy="16" r="2" fill="black" />
<circle cx="288" cy="16" r="2" fill="black" />
<circle cx="272" cy="16" r="2" fill="black" />
<circle cx="256" cy="16" r="2" fill="black" />
<circle cx="240" cy="32" r="2" fill="black" />
<circle cx="224" cy="32" r="2" fill="black" />
<circle cx="208" cy="48" r="2" fill="black" />
<circle cx="512" cy="176" r="2" fill="black" />
<circle cx="528" cy="176" r="2" fill="black" />
<circle cx="544" cy="176" r="2" fill="black" />
<circle cx="560" cy="176" r="2" fill="black" />
<circle cx="576" cy="160" r="2" fill="black" />
<circle cx="592" cy="144" r="2" fill="black" />
<circle cx="592" cy="128" r="2" fill="black" />
<circle cx="576" cy="112" r="2" fill="black" />
<circle cx="560" cy="96" r="2" fill="black" />
<circle cx="544" cy="80" r="2" fill="black" />
<circle cx="528" cy="80" r="2" fill="black" />
<circle cx="512" cy="80" r="2" fill="black" />
<circle cx="192" cy="48" r="2" fill="black" />
<circle cx="176" cy="64" r="2" fill="black" />
<circle cx="160" cy="64" r="2" fill="black" />
<circle cx="144" cy="64" r="2" fill="black" />
<circle cx="128" cy="80" r="2" fill="black" />
<circle cx="112" cy="80" r="2" fill="black" />
<circle cx="96" cy="80" r="2" fill="black" />
<circle cx="80" cy="80" r="2" fill="black" />
<circle cx="64" cy="96" r="2" fill="black" />
<circle cx="48" cy="96" r="2" fill="black" />
<circle cx="32" cy="112" r="2" fill="black" />
<circle cx="16" cy="128" r="2" fill="black" />
<circle cx="16" cy="144" r="2" fill="black" />
<circle cx="16" cy="160" r="2" fill="black" />
</svg>