<svg width="608" height="224" xmlns="http://www.w3.org/2000/svg" version="1.1" >
<rect width="100%" height="100%" fill="white"/>
<polygon stroke="red" points="16,16 592,16 592,208 16,208" fill="none" stroke-width="1" stroke-dasharray="8"/>
<polygon stroke="black" points="32,176 48,176 64,176 80,176 96,192 112,208 128,208 144,208 160,192 176,176 192,176 208,176 224,176 240,176 256,176 272,176 288,176 304,176 320,176 336,176 352,176 368,176 384,176 400,176 416,192 432,208 448,208 464,208 480,192 496,176 512,176 528,176 544,176 560,176 576,160 592,144 592,128 576,112 560,96 544,80 528,80 512,80 496,80 480,64 464,48 448,48 432,32 416,32 400,16 384,16 368,16 352,16 336,16 320,16 304,16 288,16 272,16 256,16 240,32 224,32 208,48 192,48 176,64 160,64 144,64 128,80 112,80 96,80 80,80 64,96 48,96 32,112 16,128 16,144 16,160" fill="yellow" stroke-width="1" />
<circle cx="32" cy="176" r="2" fill="black" />
<circle cx="48" cy="176" r="2" fill="black" />
<circle cx="64" cy="176" r="2" fill="black" />
<circle cx="80" cy="176" r="2" fill="black" />
<circle cx="96" cy="192" r="2" fill="black" />
<circle cx="112" cy="208" r="2" fill="black" />
<circle cx="128" cy="208" r="2" fill="black" />
<circle cx="144" cy="208" r="2" fill="black" />
<circle cx="160" cy="192" r="2" fill="black" />
<circle cx="176" cy="176" r="2" fill="black" />
<circle cx="192" cy="176" r="2" fill="black" />
<circle cx="208" cy="176" r="2" fill="black" />
<circle cx="224" cy="176" r="2" fill="black" />
<circle cx="240" cy="176" r="2" fill="black" />
<circle cx="256" cy="176" r="2" fill="black" />
<circle cx="272" cy="176" r="2" fill="black" />
<circle cx="288" cy="176" r="2" fill="black" />
<circle cx="304" cy="176" r="2" fill="black" />
<circle cx="320" cy="176" r="2" fill="black" />
<circle cx="336" cy="176" r="2" fill="black" />
<circle cx="352" cy="176" r="2" fill="black" />
<circle cx="368" cy="176" r="2" fill="black" />
<circle cx="384" cy="176" r="2" fill="black" />
<circle cx="400" cy="176" r="2" fill="black" />
<circle cx="416" cy="192" r="2" fill="black" />
<circle cx="432" cy="208" r="2" fill="black" />
<circle cx="448" cy="208" r="2" fill="black" />
<circle cx="464" cy="208" r="2" fill="black" />
<circle cx="480" cy="192" r="2" fill="black" />
<circle cx="496" cy="176" r="2" fill="black" />
<circle cx="512" cy="176" r="2" fill="black" />
<circle cx="528" cy="176" r="2" fill="black" />
<circle cx="544" cy="176" r="2" fill="black" />
<circle cx="560" cy="176" r="2" fill="black" />
<circle cx="576" cy="160" r="2" fill="black" />
<circle cx="592" cy="144" r="2" fill="black" />
<circle cx="592" cy="128" r="2" fill="black" />
<circle cx="576" cy="112" r="2" fill="black" />
<circle cx="560" cy="96" r="2" fill="black" />
<circle cx="544" cy="80" r="2" fill="black" />
<circle cx="528" cy="80" r="2" fill="black" />
<circle cx="512" cy="80" r="2" fill="black" />
<circle cx="496" cy="80" r="2" fill="black" />
<circle cx="480" cy="64" r="2" fill="black" />
<circle cx="464" cy="48" r="2" fill="black" />
<circle cx="448" cy="48" r="2" fill="black" />
<circle cx="432" cy="32" r="2" fill="black" />
<circle cx="416" cy="32" r="2" fill="black" />
<circle cx="400" cy="16" r="2" fill="black" />
<circle cx="384" cy="16" r="2" fill="black" />
<circle cx="368" cy="16" r="2" fill="black" />
<circle cx="352" cy="16" r="2" fill="black" />
<circle cx="336" cy="16" r="2" fill="black" />
<circle cx="320" cy="16" r="2" fill="black" />
<circle cx="304" cy="16" r="2" fill="black" />
<circle cx="288" cy="16" r="2" fill="black" />
<circle cx="272" cy="16" r="2" fill="black" />
<circle cx="256" cy="16" r="2" fill="black" />
<circle cx="240" cy="32" r="2" fill="black" />
<circle cx="224" cy="32" r="2" fill="black" />
<circle cx="208" cy="48" r="2" fill="black" />
<circle cx="192" cy="48" r="2" fill="black" />
<circle cx="176" cy="64" r="2" fill="black" />
<circle cx="160" cy="64" r="2" fill="black" />
<circle cx="144" cy="64" r="2" fill="black" />
<circle cx="128" cy="80" r="2" fill="black" />
<circle cx="112" cy="80" r="2" fill="black" />
<circle cx="96" cy="80" r="2" fill="black" />
<circle cx="80" cy="80" r="2" fill="black" />
<circle cx="64" cy="96" r="2" fill="black" />
<circle cx="48" cy="96" r="2" fill="black" />
<circle cx="32" cy="112" r="2" fill="black" />
<circle cx="16" cy="128" r="2" fill="black" />
<circle cx="16" cy="144" r="2" fill="black" />
<circle cx="16" cy="160" r="2" fill="black" />
</svg>