<svg width="368" height="336" xmlns="http://www.w3.org/2000/svg" version="1.1" >
<rect width="100%" height="100%" fill="white"/>
<polygon stroke="red" points="16,16 352,16 352,320 16,320" fill="none" stroke-width="1" stroke-dasharray="8"/>
<polygon stroke="black" points="192,64 208,48 224,32 240,16 256,16 272,32 288,48 288,64 288,80 288,96 272,112 288,128 304,128 320,128 336,144 352,160 352,176 352,192 336,208 320,208 304,224 288,224 272,240 288,256 288,272 288,288 288,304 272,320 256,320 240,320 224,320 208,304 192,288 176,288 160,304 144,320 128,320 112,320 96,304 80,288 80,272 80,256 96,240 80,224 64,224 48,208 32,208 16,192 16,176 16,160 32,144 48,128 64,128 80,128 96,112 96,96 80,80 80,64 80,48 96,32 112,16 128,16 144,32 160,48 176,64" fill="yellow" stroke-width="1" />
<circle cx="192" cy="64" r="2" fill="black" />
<circle cx="208" cy="48" r="2" fill="black" />
<circle cx="224" cy="32" r="2" fill="black" />
<circle cx="240" cy="16" r="2" fill="black" />
<circle cx="256" cy="16" r="2" fill="black" />
<circle cx="272" cy="32" r="2" fill="black" />
<circle cx="288" cy="48" r="2" fill="black" />
<circle cx="288" cy="64" r="2" fill="black" />
<circle cx="288" cy="80" r="2" fill="black" />
<circle cx="288" cy="96" r="2" fill="black" />
<circle cx="272" cy="112" r="2" fill="black" />
<circle cx="288" cy="128" r="2" fill="black" />
<circle cx="304" cy="128" r="2" fill="black" />
<circle cx="320" cy="128" r="2" fill="black" />
<circle cx="336" cy="144" r="2" fill="black" />
<circle cx="352" cy="160" r="2" fill="black" />
<circle cx="352" cy="176" r="2" fill="black" />
<circle cx="352" cy="192" r="2" fill="black" />
<circle cx="336" cy="208" r="2" fill="black" />
<circle cx="320" cy="208" r="2" fill="black" />
<circle cx="304" cy="224" r="2" fill="black" />
<circle cx="288" cy="224" r="2" fill="black" />
<circle cx="272" cy="240" r="2" fill="black" />
<circle cx="288" cy="256" r="2" fill="black" />
<circle cx="288" cy="272" r="2" fill="black" />
<circle cx="288" cy="288" r="2" fill="black" />
<circle cx="288" cy="304" r="2" fill="black" />
<circle cx="272" cy="320" r="2" fill="black" />
<circle cx="256" cy="320" r="2" fill="black" />
<circle cx="240" cy="320" r="2" fill="black" />
<circle cx="224" cy="320" r="2" fill="black" />
<circle cx="208" cy="304" r="2" fill="black" />
<circle cx="192" cy="288" r="2" fill="black" />
<circle cx="176" cy="288" r="2" fill="black" />
<circle cx="160" cy="304" r="2" fill="black" />
<circle cx="144" cy="320" r="2" fill="black" />
<circle cx="128" cy="320" r="2" fill="black" />
<circle cx="112" cy="320" r="2" fill="black" />
<circle cx="96" cy="304" r="2" fill="black" />
<circle cx="80" cy="288" r="2" fill="black" />
<circle cx="80" cy="272" r="2" fill="black" />
<circle cx="80" cy="256" r="2" fill="black" />
<circle cx="96" cy="240" r="2" fill="black" />
<circle cx="80" cy="224" r="2" fill="black" />
<circle cx="64" cy="224" r="2" fill="black" />
<circle cx="48" cy="208" r="2" fill="black" />
<circle cx="32" cy="208" r="2" fill="black" />
<circle cx="16" cy="192" r="2" fill="black" />
<circle cx="16" cy="176" r="2" fill="black" />
<circle cx="16" cy="160" r="2" fill="black" />
<circle cx="32" cy="144" r="2" fill="black" />
<circle cx="48" cy="128" r="2" fill="black" />
<circle cx="64" cy="128" r="2" fill="black" />
<circle cx="80" cy="128" r="2" fill="black" />
<circle cx="96" cy="112" r="2" fill="black" />
<circle cx="96" cy="96" r="2" fill="black" />
<circle cx="80" cy="80" r="2" fill="black" />
<circle cx="80" cy="64" r="2" fill="black" />
<circle cx="80" cy="48" r="2" fill="black" />
<circle cx="96" cy="32" r="2" fill="black" />
<circle cx="112" cy="16" r="2" fill="black" />
<circle cx="128" cy="16" r="2" fill="black" />
<circle cx="144" cy="32" r="2" fill="black" />
<circle cx="160" cy="48" r="2" fill="black" />
<circle cx="176" cy="64" r="2" fill="black" />
</svg>