<svg width="368" height="336" xmlns="http://www.w3.org/2000/svg" version="1.1" >
<rect width="100%" height="100%" fill="white"/>
<polygon stroke="red" points="16,16 352,16 352,320 16,320" fill="none" stroke-width="1" stroke-dasharray="8"/>
<circle cx="192" cy="64" r="2" fill="black" />
<circle cx="208" cy="48" r="2" fill="black" />
<circle cx="224" cy="32" r="2" fill="black" />
<circle cx="112" cy="16" r="2" fill="black" />
<circle cx="128" cy="16" r="2" fill="black" />
<circle cx="144" cy="32" r="2" fill="black" />
<circle cx="160" cy="48" r="2" fill="black" />
<circle cx="176" cy="64" r="2" fill="black" />
<circle cx="240" cy="16" r="2" fill="black" />
<circle cx="256" cy="16" r="2" fill="black" />
<circle cx="272" cy="32" r="2" fill="black" />
<circle cx="288" cy="80" r="2" fill="black" />
<circle cx="288" cy="96" r="2" fill="black" />
<circle cx="352" cy="160" r="2" fill="black" />
<circle cx="352" cy="176" r="2" fill="black" />
<circle cx="352" cy="192" r="2" fill="black" />
<circle cx="272" cy="112" r="2" fill="black" />
<circle cx="288" cy="128" r="2" fill="black" />
<circle cx="304" cy="128" r="2" fill="black" />
<circle cx="320" cy="128" r="2" fill="black" />
<circle cx="336" cy="144" r="2" fill="black" />
<circle cx="336" cy="208" r="2" fill="black" />
<circle cx="320" cy="208" r="2" fill="black" />
<circle cx="304" cy="224" r="2" fill="black" />
<circle cx="288" cy="224" r="2" fill="black" />
<circle cx="272" cy="240" r="2" fill="black" />
<circle cx="288" cy="48" r="2" fill="black" />
<circle cx="288" cy="64" r="2" fill="black" />
<circle cx="288" cy="256" r="2" fill="black" />
<circle cx="288" cy="272" r="2" fill="black" />
<circle cx="288" cy="288" r="2" fill="black" />
<circle cx="288" cy="304" r="2" fill="black" />
<circle cx="272" cy="320" r="2" fill="black" />
<circle cx="256" cy="320" r="2" fill="black" />
<circle cx="240" cy="320" r="2" fill="black" />
<circle cx="224" cy="320" r="2" fill="black" />
<circle cx="208" cy="304" r="2" fill="black" />
<circle cx="192" cy="288" r="2" fill="black" />
<circle cx="176" cy="288" r="2" fill="black" />
<circle cx="160" cy="304" r="2" fill="black" />
<circle cx="144" cy="320" r="2" fill="black" />
<circle cx="128" cy="320" r="2" fill="black" />
<circle cx="112" cy="320" r="2" fill="black" />
<circle cx="96" cy="304" r="2" fill="black" />
<circle cx="80" cy="288" r="2" fill="black" />
<circle cx="80" cy="272" r="2" fill="black" />
<circle cx="80" cy="256" r="2" fill="black" />
<circle cx="96" cy="240" r="2" fill="black" />
<circle cx="80" cy="224" r="2" fill="black" />
<circle cx="64" cy="224" r="2" fill="black" />
<circle cx="48" cy="208" r="2" fill="black" />
<circle cx="32" cy="208" r="2" fill="black" />
<circle cx="48" cy="128" r="2" fill="black" />
<circle cx="64" cy="128" r="2" fill="black" />
<circle cx="16" cy="192" r="2" fill="black" />
<circle cx="16" cy="176" r="2" fill="black" />
<circle cx="16" cy="160" r="2" fill="black" />
<circle cx="32" cy="144" r="2" fill="black" />
<circle cx="80" cy="128" r="2" fill="black" />
<circle cx="80" cy="80" r="2" fill="black" />
<circle cx="80" cy="64" r="2" fill="black" />
<circle cx="80" cy="48" r="2" fill="black" />
<circle cx="96" cy="32" r="2" fill="black" />
<circle cx="96" cy="112" r="2" fill="black" />
<circle cx="96" cy="96" r="2" fill="black" />
</svg>